<svg xmlns="http://www.w3.org/2000/svg" version="1.1" xmlns:xlink="http://www.w3.org/1999/xlink" width="1000" height="1000"><metadata><rdf:RDF xmlns:rdf="http://www.w3.org/1999/02/22-rdf-syntax-ns#" xmlns:dc="http://purl.org/dc/elements/1.1/"><rdf:Description><dc:creator>RealFaviconGenerator</dc:creator><dc:source>https://realfavicongenerator.net</dc:source></rdf:Description></rdf:RDF></metadata><g clip-path="url(#SvgjsClipPath1132)"><rect width="1000" height="1000" fill="#ffffff"></rect><g transform="matrix(0.9259259259259259,0,0,0.9259259259259259,0,0)"><svg xmlns="http://www.w3.org/2000/svg" version="1.1" id="Layer_1" viewBox="0 0 1080 1080" width="1080" height="1080"><defs>
    <style>
      .st0 {
        fill: #6e2300;
      }
    </style>
  <clipPath id="SvgjsClipPath1132"><rect width="1000" height="1000" x="0" y="0" rx="500" ry="500"></rect></clipPath></defs><path class="st0" d="M542.48,594.35l42.79-82.33c52.29-73.63,128.63-130.91,215.24-157.67,18.09,72.06,23.76,172.49,18.77,216.18-6.51,57.01-23.4,141.12-108.89,215.11l35.95-69.14c34-86.47,14.16-169.92-.03-258.92-86.68,38.14-152.72,109.5-202.55,188.34-11.87-14.32-20.1-31.32-31.19-46.18-34.66-46.44-83.09-92.78-132.89-122.6-6-3.59-28.66-17.31-33.24-18.46-3.17-.8-4.12-2.12-6.63,1.4l-7.22,59.99c-.33,2.7-2.59,21.45-2.77,24.17-1.79,26.11-15.48,92.79,53.66,241.4.56,1.71,1.22,1.1,0,0-29.71-26.82-29.15-33.68-61.21-67.68-88.1-93.44-68.32-244.07-35.27-363.62,114.08,36.25,217.29,124.67,255.51,239.99Z"></path><path class="st0" d="M627.66,436.93c-9.46-18.33-65.72-77.19-83.92-77.2-20.28,0-72.8,59.7-85.23,77.22l-20.46-15.47c2.31-11.29,11.93-30.06,16.21-37.88,19.94-36.53,53.25-70.02,89.48-90.32,48.03,27.35,88.16,73.58,104.68,126.86l-20.75,16.79Z"></path><path class="st0" d="M410.12,524.39l24.29,17.49s.97,157.39,36.92,215.69c0,0-77.16-143.23-61.21-233.17Z"></path><path class="st0" d="M677.94,524.39l-24.29,17.49s-.97,157.39-36.92,215.69c0,0,77.16-143.23,61.21-233.17Z"></path></svg></g></g></svg>