<?xml version="1.0" encoding="UTF-8"?>
<svg id="Layer_1" xmlns="http://www.w3.org/2000/svg" version="1.1" viewBox="0 0 1080 1080">
  <!-- Generator: Adobe Illustrator 29.8.2, SVG Export Plug-In . SVG Version: 2.1.1 Build 3)  -->
  <defs>
    <style>
      .st0 {
        display: none;
        fill: none;
        stroke: #bf0020;
        stroke-miterlimit: 10;
      }

      .st1, .st2 {
        fill: #6e2300;
      }

      .st2 {
        font-family: BigCaslon-Medium, 'Big Caslon';
        font-size: 154.84px;
        font-weight: 500;
      }
    </style>
  </defs>
  <path class="st1" d="M555.69,491.19l42.79-82.33c52.29-73.63,128.63-130.91,215.24-157.67,18.09,72.06,23.76,172.49,18.77,216.18-6.51,57.01-23.4,141.12-108.89,215.11l35.95-69.14c34-86.47,14.16-169.92-.03-258.92-86.68,38.14-152.72,109.5-202.55,188.34-11.87-14.32-20.1-31.32-31.19-46.18-34.66-46.44-83.09-92.78-132.89-122.6-6-3.59-28.66-17.31-33.24-18.46-3.17-.8-4.12-2.12-6.63,1.4l-7.22,59.99c-.33,2.7-2.59,21.45-2.77,24.17-1.79,26.11-15.48,92.79,53.66,241.4.56,1.71,1.22,1.1,0,0-29.71-26.82-29.15-33.68-61.21-67.68-88.1-93.44-68.32-244.07-35.27-363.62,114.08,36.25,217.29,124.67,255.51,239.99Z"/>
  <path class="st1" d="M640.87,333.77c-9.46-18.33-65.72-77.19-83.92-77.2-20.28,0-72.8,59.7-85.23,77.22l-20.46-15.47c2.31-11.29,11.93-30.06,16.21-37.88,19.94-36.53,53.25-70.02,89.48-90.32,48.03,27.35,88.16,73.58,104.68,126.86l-20.75,16.79Z"/>
  <path class="st1" d="M423.33,421.23l24.29,17.49s.97,157.39,36.92,215.69c0,0-77.16-143.23-61.21-233.17Z"/>
  <path class="st1" d="M691.14,421.23l-24.29,17.49s-.97,157.39-36.92,215.69c0,0,77.16-143.23,61.21-233.17Z"/>
  <text class="st2" transform="translate(188.65 863.46)"><tspan x="0" y="0">MARYAM</tspan></text>
  <path class="st0" d="M2115.2,20.13c0,47.33,20.51,89.88,53.12,119.23-16.62-25.26-26.29-55.51-26.29-88.01,0-15.8,2.29-31.07,6.55-45.49,27.25,11.26,50.73,29.82,67.98,53.24,1.61,2.17,3.16,4.39,4.65,6.65,1.51-2.29,3.08-4.53,4.7-6.73,18.52-25.1,44.17-44.6,73.97-55.52,6.04,16.88,9.33,35.06,9.33,54.02,0,29.35-7.88,56.85-21.65,80.52,28.3-28.91,45.74-68.49,45.74-112.14,0-10.35-.98-20.46-2.85-30.26-1.97-10.31-4.92-20.27-8.76-29.77-11.55,3.22-22.57,7.69-32.91,13.27-28.95,15.61-52.55,39.87-67.35,69.31-13.45-28.81-35.23-52.96-62.23-69.36-10.52-6.4-21.83-11.61-33.76-15.47-3.95,10.47-6.82,21.47-8.5,32.86-1.15,7.72-1.74,15.61-1.74,23.65Z"/>
</svg>